<mxfile host="Electron" modified="2024-03-29T13:41:32.037Z" agent="Mozilla/5.0 (Windows NT 10.0; Win64; x64) AppleWebKit/537.36 (KHTML, like Gecko) draw.io/24.0.4 Chrome/120.0.6099.109 Electron/28.1.0 Safari/537.36" etag="Kh4o4phWYRW7vwQJX3cu" version="24.0.4" type="device">
  <diagram name="第 1 页" id="zpYY3T5udbyrj_bb9Btt">
    <mxGraphModel dx="2060" dy="1571" grid="1" gridSize="10" guides="1" tooltips="1" connect="1" arrows="1" fold="1" page="1" pageScale="1" pageWidth="1100" pageHeight="850" math="0" shadow="0">
      <root>
        <mxCell id="0" />
        <mxCell id="1" parent="0" />
        <mxCell id="Nfc84PNBoTLiPBviXg40-1" value="&lt;font face=&quot;Verdana&quot;&gt;Sliding Windows Attention&lt;/font&gt;" style="rounded=0;whiteSpace=wrap;html=1;align=left;fillColor=#e1d5e7;strokeColor=#9673a6;" vertex="1" parent="1">
          <mxGeometry x="40" y="40" width="160" height="30" as="geometry" />
        </mxCell>
        <mxCell id="Nfc84PNBoTLiPBviXg40-26" style="edgeStyle=orthogonalEdgeStyle;rounded=0;orthogonalLoop=1;jettySize=auto;html=1;entryX=0;entryY=0.5;entryDx=0;entryDy=0;strokeColor=default;strokeWidth=2;align=center;verticalAlign=middle;fontFamily=Helvetica;fontSize=11;fontColor=default;labelBackgroundColor=default;endArrow=classic;" edge="1" parent="1" source="Nfc84PNBoTLiPBviXg40-2" target="Nfc84PNBoTLiPBviXg40-7">
          <mxGeometry relative="1" as="geometry">
            <Array as="points">
              <mxPoint x="105" y="195" />
            </Array>
          </mxGeometry>
        </mxCell>
        <mxCell id="Nfc84PNBoTLiPBviXg40-2" value="&lt;div style=&quot;font-family: Consolas, &amp;quot;Courier New&amp;quot;, monospace; font-size: 14px; line-height: 19px; white-space: pre;&quot;&gt;input_ids_shape:&lt;/div&gt;&lt;div style=&quot;font-family: Consolas, &amp;quot;Courier New&amp;quot;, monospace; font-size: 14px; line-height: 19px; white-space: pre;&quot;&gt;(2,5)&lt;/div&gt;" style="rounded=1;whiteSpace=wrap;html=1;labelBackgroundColor=none;fillColor=#ffcc99;strokeColor=#36393d;" vertex="1" parent="1">
          <mxGeometry x="40" y="100" width="130" height="40" as="geometry" />
        </mxCell>
        <mxCell id="Nfc84PNBoTLiPBviXg40-3" value="&lt;div style=&quot;line-height: 19px;&quot;&gt;&lt;div style=&quot;font-family: Consolas, &amp;quot;Courier New&amp;quot;, monospace; font-size: 14px; font-weight: normal; white-space: pre;&quot;&gt;&lt;span style=&quot;&quot;&gt;dtype:&lt;/span&gt;&lt;/div&gt;&lt;div style=&quot;&quot;&gt;&lt;font face=&quot;Consolas, Courier New, monospace&quot;&gt;&lt;span style=&quot;font-size: 14px; white-space: pre;&quot;&gt;torch.float32&lt;/span&gt;&lt;/font&gt;&lt;br&gt;&lt;/div&gt;&lt;/div&gt;" style="rounded=1;whiteSpace=wrap;html=1;labelBackgroundColor=none;fillColor=#ffcc99;strokeColor=#36393d;" vertex="1" parent="1">
          <mxGeometry x="210" y="100" width="110" height="40" as="geometry" />
        </mxCell>
        <mxCell id="Nfc84PNBoTLiPBviXg40-28" style="edgeStyle=orthogonalEdgeStyle;rounded=0;orthogonalLoop=1;jettySize=auto;html=1;entryX=0.75;entryY=0;entryDx=0;entryDy=0;strokeColor=default;strokeWidth=2;align=center;verticalAlign=middle;fontFamily=Helvetica;fontSize=11;fontColor=default;labelBackgroundColor=default;endArrow=classic;" edge="1" parent="1" source="Nfc84PNBoTLiPBviXg40-4" target="Nfc84PNBoTLiPBviXg40-7">
          <mxGeometry relative="1" as="geometry" />
        </mxCell>
        <mxCell id="Nfc84PNBoTLiPBviXg40-4" value="&lt;div style=&quot;font-family: Consolas, &amp;quot;Courier New&amp;quot;, monospace; font-size: 14px; line-height: 19px; white-space: pre;&quot;&gt;device:&lt;/div&gt;&lt;div style=&quot;font-family: Consolas, &amp;quot;Courier New&amp;quot;, monospace; font-size: 14px; line-height: 19px; white-space: pre;&quot;&gt;0&lt;/div&gt;" style="rounded=1;whiteSpace=wrap;html=1;labelBackgroundColor=none;fillColor=#ffcc99;strokeColor=#36393d;" vertex="1" parent="1">
          <mxGeometry x="360" y="100" width="80" height="40" as="geometry" />
        </mxCell>
        <mxCell id="Nfc84PNBoTLiPBviXg40-29" style="edgeStyle=orthogonalEdgeStyle;rounded=0;orthogonalLoop=1;jettySize=auto;html=1;entryX=1;entryY=0.5;entryDx=0;entryDy=0;strokeColor=default;strokeWidth=2;align=center;verticalAlign=middle;fontFamily=Helvetica;fontSize=11;fontColor=default;labelBackgroundColor=default;endArrow=classic;" edge="1" parent="1" source="Nfc84PNBoTLiPBviXg40-5" target="Nfc84PNBoTLiPBviXg40-7">
          <mxGeometry relative="1" as="geometry">
            <Array as="points">
              <mxPoint x="570" y="195" />
            </Array>
          </mxGeometry>
        </mxCell>
        <mxCell id="Nfc84PNBoTLiPBviXg40-5" value="&lt;div style=&quot;font-family: Consolas, &amp;quot;Courier New&amp;quot;, monospace; font-size: 14px; line-height: 19px; white-space: pre;&quot;&gt;past_key_values_length:&lt;/div&gt;&lt;div style=&quot;font-family: Consolas, &amp;quot;Courier New&amp;quot;, monospace; font-size: 14px; line-height: 19px; white-space: pre;&quot;&gt;1&lt;/div&gt;" style="rounded=1;whiteSpace=wrap;html=1;labelBackgroundColor=none;fillColor=#ffcc99;strokeColor=#36393d;" vertex="1" parent="1">
          <mxGeometry x="480" y="100" width="180" height="40" as="geometry" />
        </mxCell>
        <mxCell id="Nfc84PNBoTLiPBviXg40-30" style="edgeStyle=orthogonalEdgeStyle;rounded=0;orthogonalLoop=1;jettySize=auto;html=1;entryX=1;entryY=0.75;entryDx=0;entryDy=0;strokeColor=default;strokeWidth=2;align=center;verticalAlign=middle;fontFamily=Helvetica;fontSize=11;fontColor=default;labelBackgroundColor=default;endArrow=classic;" edge="1" parent="1" source="Nfc84PNBoTLiPBviXg40-6" target="Nfc84PNBoTLiPBviXg40-7">
          <mxGeometry relative="1" as="geometry">
            <Array as="points">
              <mxPoint x="760" y="203" />
              <mxPoint x="545" y="203" />
            </Array>
          </mxGeometry>
        </mxCell>
        <mxCell id="Nfc84PNBoTLiPBviXg40-6" value="&lt;div style=&quot;font-family: Consolas, &amp;quot;Courier New&amp;quot;, monospace; font-size: 14px; line-height: 19px; white-space: pre;&quot;&gt;sliding_window:&lt;/div&gt;&lt;div style=&quot;font-family: Consolas, &amp;quot;Courier New&amp;quot;, monospace; font-size: 14px; line-height: 19px; white-space: pre;&quot;&gt;3&lt;/div&gt;" style="rounded=1;whiteSpace=wrap;html=1;labelBackgroundColor=none;fillColor=#ffcc99;strokeColor=#36393d;" vertex="1" parent="1">
          <mxGeometry x="700" y="100" width="120" height="40" as="geometry" />
        </mxCell>
        <mxCell id="Nfc84PNBoTLiPBviXg40-7" value="&lt;div style=&quot;font-family: Consolas, &amp;quot;Courier New&amp;quot;, monospace; font-size: 14px; line-height: 19px; white-space: pre;&quot;&gt;_make_causal_mask&lt;/div&gt;" style="rounded=1;whiteSpace=wrap;html=1;labelBackgroundColor=none;fillColor=#cce5ff;strokeColor=#36393d;" vertex="1" parent="1">
          <mxGeometry x="250" y="180" width="140" height="30" as="geometry" />
        </mxCell>
        <mxCell id="Nfc84PNBoTLiPBviXg40-13" value="&lt;div style=&quot;font-family: Consolas, &amp;quot;Courier New&amp;quot;, monospace; font-weight: normal; font-size: 14px; line-height: 19px; white-space: pre;&quot;&gt;&lt;div&gt;&lt;span style=&quot;&quot;&gt;bsz, tgt_len = input_ids_shape&lt;/span&gt;&lt;/div&gt;&lt;/div&gt;" style="text;whiteSpace=wrap;html=1;fontFamily=Helvetica;fontSize=11;labelBackgroundColor=default;" vertex="1" parent="1">
          <mxGeometry x="40" y="240" width="260" height="30" as="geometry" />
        </mxCell>
        <mxCell id="Nfc84PNBoTLiPBviXg40-14" value="&lt;div style=&quot;font-family: Consolas, &amp;quot;Courier New&amp;quot;, monospace; font-weight: normal; font-size: 14px; line-height: 19px; white-space: pre;&quot;&gt;&lt;div&gt;&lt;span style=&quot;&quot;&gt;mask = torch.full((tgt_len, tgt_len), &lt;/span&gt;&lt;/div&gt;&lt;div&gt;&lt;span style=&quot;&quot;&gt;torch.finfo(dtype).min,&lt;/span&gt;device=device)&lt;/div&gt;&lt;/div&gt;" style="text;whiteSpace=wrap;html=1;fontFamily=Helvetica;fontSize=11;labelBackgroundColor=default;" vertex="1" parent="1">
          <mxGeometry x="40" y="290" width="300" height="50" as="geometry" />
        </mxCell>
        <mxCell id="Nfc84PNBoTLiPBviXg40-15" value="tensor([[-3.4028e+38, -3.4028e+38, -3.4028e+38, -3.4028e+38, -3.4028e+38],&#xa;            [-3.4028e+38, -3.4028e+38, -3.4028e+38, -3.4028e+38, -3.4028e+38],&#xa;            [-3.4028e+38, -3.4028e+38, -3.4028e+38, -3.4028e+38, -3.4028e+38],&#xa;            [-3.4028e+38, -3.4028e+38, -3.4028e+38, -3.4028e+38, -3.4028e+38],&#xa;            [-3.4028e+38, -3.4028e+38, -3.4028e+38, -3.4028e+38, -3.4028e+38]],&#xa;       device=&#39;cuda:0&#39;)" style="text;whiteSpace=wrap;fontFamily=Helvetica;fontSize=11;fontColor=default;labelBackgroundColor=default;" vertex="1" parent="1">
          <mxGeometry x="640" y="272.5" width="410" height="85" as="geometry" />
        </mxCell>
        <mxCell id="Nfc84PNBoTLiPBviXg40-16" value="&lt;div style=&quot;font-family: Consolas, &amp;quot;Courier New&amp;quot;, monospace; font-weight: normal; font-size: 14px; line-height: 19px; white-space: pre;&quot;&gt;&lt;div&gt;&lt;span style=&quot;&quot;&gt;mask_cond = torch.arange(mask.size(-&lt;/span&gt;&lt;span style=&quot;&quot;&gt;1&lt;/span&gt;&lt;span style=&quot;&quot;&gt;), device=device)&lt;/span&gt;&lt;/div&gt;&lt;/div&gt;" style="text;whiteSpace=wrap;html=1;fontFamily=Helvetica;fontSize=11;labelBackgroundColor=default;" vertex="1" parent="1">
          <mxGeometry x="40" y="360" width="450" height="40" as="geometry" />
        </mxCell>
        <mxCell id="Nfc84PNBoTLiPBviXg40-17" value="tensor([0, 1, 2, 3, 4], device=&#39;cuda:0&#39;)" style="text;whiteSpace=wrap;fontFamily=Helvetica;fontSize=11;fontColor=default;labelBackgroundColor=default;" vertex="1" parent="1">
          <mxGeometry x="640" y="357.5" width="210" height="40" as="geometry" />
        </mxCell>
        <mxCell id="Nfc84PNBoTLiPBviXg40-18" value="&lt;div style=&quot;font-family: Consolas, &amp;quot;Courier New&amp;quot;, monospace; font-weight: normal; font-size: 14px; line-height: 19px; white-space: pre;&quot;&gt;&lt;div&gt;&lt;span style=&quot;&quot;&gt;mask.masked_fill_(mask_cond &lt;/span&gt;&lt;span style=&quot;&quot;&gt;&amp;lt;&lt;/span&gt;&lt;span style=&quot;&quot;&gt; (mask_cond &lt;/span&gt;&lt;span style=&quot;&quot;&gt;+&lt;/span&gt;&lt;span style=&quot;&quot;&gt; &lt;/span&gt;&lt;span style=&quot;&quot;&gt;1&lt;/span&gt;&lt;span style=&quot;&quot;&gt;).view(mask.size(-&lt;/span&gt;&lt;span style=&quot;&quot;&gt;1&lt;/span&gt;&lt;span style=&quot;&quot;&gt;), &lt;/span&gt;&lt;span style=&quot;&quot;&gt;1&lt;/span&gt;&lt;span style=&quot;&quot;&gt;), &lt;/span&gt;&lt;span style=&quot;&quot;&gt;0&lt;/span&gt;&lt;span style=&quot;&quot;&gt;)&lt;/span&gt;&lt;/div&gt;&lt;/div&gt;" style="text;whiteSpace=wrap;html=1;fontFamily=Helvetica;fontSize=11;labelBackgroundColor=default;" vertex="1" parent="1">
          <mxGeometry x="40" y="420" width="560" height="40" as="geometry" />
        </mxCell>
        <mxCell id="Nfc84PNBoTLiPBviXg40-20" value="&lt;div style=&quot;font-family: Consolas, &amp;quot;Courier New&amp;quot;, monospace; font-weight: normal; font-size: 14px; line-height: 19px; white-space: pre;&quot;&gt;&lt;div&gt;&lt;span style=&quot;&quot;&gt;mask = mask.to(dtype)&lt;/span&gt;&lt;/div&gt;&lt;/div&gt;" style="text;whiteSpace=wrap;html=1;fontFamily=Helvetica;fontSize=11;labelBackgroundColor=default;" vertex="1" parent="1">
          <mxGeometry x="40" y="480" width="200" height="40" as="geometry" />
        </mxCell>
        <mxCell id="Nfc84PNBoTLiPBviXg40-22" value="&lt;div style=&quot;font-family: Consolas, &amp;quot;Courier New&amp;quot;, monospace; font-weight: normal; font-size: 14px; line-height: 19px; white-space: pre;&quot;&gt;&lt;div&gt;&lt;span style=&quot;&quot;&gt;if&lt;/span&gt;&lt;span style=&quot;&quot;&gt; past_key_values_length &amp;gt; &lt;/span&gt;&lt;span style=&quot;&quot;&gt;0&lt;/span&gt;&lt;span style=&quot;&quot;&gt;:&lt;/span&gt;&lt;/div&gt;&lt;div&gt;&lt;span style=&quot;&quot;&gt;&amp;nbsp; &amp;nbsp; mask = torch.cat([torch.zeros(tgt_len, &lt;/span&gt;&lt;/div&gt;&lt;div&gt;&lt;span style=&quot;&quot;&gt;&amp;nbsp; &amp;nbsp; &amp;nbsp; &amp;nbsp; &amp;nbsp; &amp;nbsp; &amp;nbsp; &amp;nbsp; &amp;nbsp; &amp;nbsp; &amp;nbsp; &amp;nbsp; &amp;nbsp; &amp;nbsp; &amp;nbsp; &amp;nbsp; &amp;nbsp; past_key_values_length, &lt;/span&gt;&lt;/div&gt;&lt;div&gt;&lt;span style=&quot;&quot;&gt;&amp;nbsp; &amp;nbsp; &amp;nbsp; &amp;nbsp; &amp;nbsp; &amp;nbsp; &amp;nbsp; &amp;nbsp; &amp;nbsp; &amp;nbsp; &amp;nbsp; &amp;nbsp; &amp;nbsp; &amp;nbsp; &amp;nbsp; &amp;nbsp; &amp;nbsp; dtype=dtype, &lt;/span&gt;&lt;/div&gt;&lt;div&gt;&lt;span style=&quot;&quot;&gt;&amp;nbsp; &amp;nbsp; &amp;nbsp; &amp;nbsp; &amp;nbsp; &amp;nbsp; &amp;nbsp; &amp;nbsp; &amp;nbsp; &amp;nbsp; &amp;nbsp; &amp;nbsp; &amp;nbsp; &amp;nbsp; &amp;nbsp; &amp;nbsp; &amp;nbsp; device=device), mask], dim=-&lt;/span&gt;&lt;span style=&quot;&quot;&gt;1&lt;/span&gt;&lt;span style=&quot;&quot;&gt;)&lt;/span&gt;&lt;/div&gt;&lt;/div&gt;" style="text;whiteSpace=wrap;html=1;fontFamily=Helvetica;fontSize=11;labelBackgroundColor=default;" vertex="1" parent="1">
          <mxGeometry x="40" y="540" width="530" height="110" as="geometry" />
        </mxCell>
        <mxCell id="Nfc84PNBoTLiPBviXg40-24" value="&lt;div style=&quot;font-family: Consolas, &amp;quot;Courier New&amp;quot;, monospace; font-weight: normal; font-size: 14px; line-height: 19px; white-space: pre;&quot;&gt;&lt;div&gt;&lt;span style=&quot;&quot;&gt;if&lt;/span&gt;&lt;span style=&quot;&quot;&gt; sliding_window &lt;/span&gt;&lt;span style=&quot;&quot;&gt;is&lt;/span&gt;&lt;span style=&quot;&quot;&gt; &lt;/span&gt;&lt;span style=&quot;&quot;&gt;not&lt;/span&gt;&lt;span style=&quot;&quot;&gt; &lt;/span&gt;&lt;span style=&quot;&quot;&gt;None&lt;/span&gt;&lt;span style=&quot;&quot;&gt;:&lt;/span&gt;&lt;/div&gt;&lt;div&gt;&lt;span style=&quot;&quot;&gt;&amp;nbsp; &amp;nbsp; diagonal = past_key_values_length - sliding_window - &lt;/span&gt;&lt;span style=&quot;&quot;&gt;1&lt;/span&gt;&lt;/div&gt;&lt;div&gt;&lt;span style=&quot;&quot;&gt;&amp;nbsp; &amp;nbsp; context_mask = torch.tril(torch.ones_like(mask, dtype=torch.bool), &lt;/span&gt;&lt;/div&gt;&lt;div&gt;&lt;span style=&quot;&quot;&gt;&amp;nbsp; &amp;nbsp; &amp;nbsp; &amp;nbsp; &amp;nbsp; &amp;nbsp; &amp;nbsp; &amp;nbsp; &amp;nbsp; &amp;nbsp; &amp;nbsp; &amp;nbsp; &amp;nbsp; &amp;nbsp; &amp;nbsp; diagonal=diagonal)&lt;/span&gt;&lt;/div&gt;&lt;div&gt;&lt;span style=&quot;&quot;&gt;&amp;nbsp; &amp;nbsp; mask.masked_fill_(context_mask, torch.finfo(dtype).min)&lt;/span&gt;&lt;/div&gt;&lt;/div&gt;" style="text;whiteSpace=wrap;html=1;fontFamily=Helvetica;fontSize=11;labelBackgroundColor=default;" vertex="1" parent="1">
          <mxGeometry x="40" y="670" width="560" height="120" as="geometry" />
        </mxCell>
        <mxCell id="Nfc84PNBoTLiPBviXg40-25" value="&lt;div style=&quot;font-family: Consolas, &amp;quot;Courier New&amp;quot;, monospace; font-weight: normal; font-size: 14px; line-height: 19px; white-space: pre;&quot;&gt;&lt;div&gt;&lt;span style=&quot;&quot;&gt;return&lt;/span&gt;&lt;span style=&quot;&quot;&gt; mask[&lt;/span&gt;&lt;span style=&quot;&quot;&gt;None&lt;/span&gt;&lt;span style=&quot;&quot;&gt;, &lt;/span&gt;&lt;span style=&quot;&quot;&gt;None&lt;/span&gt;&lt;span style=&quot;&quot;&gt;, :, :].expand(bsz, &lt;/span&gt;&lt;span style=&quot;&quot;&gt;1&lt;/span&gt;&lt;span style=&quot;&quot;&gt;, tgt_len, tgt_len + past_key_values_length)&lt;/span&gt;&lt;/div&gt;&lt;/div&gt;" style="text;whiteSpace=wrap;html=1;fontFamily=Helvetica;fontSize=11;labelBackgroundColor=default;" vertex="1" parent="1">
          <mxGeometry x="40" y="800" width="560" height="40" as="geometry" />
        </mxCell>
        <mxCell id="Nfc84PNBoTLiPBviXg40-27" style="edgeStyle=orthogonalEdgeStyle;rounded=0;orthogonalLoop=1;jettySize=auto;html=1;entryX=0.105;entryY=0.089;entryDx=0;entryDy=0;entryPerimeter=0;strokeColor=default;strokeWidth=2;align=center;verticalAlign=middle;fontFamily=Helvetica;fontSize=11;fontColor=default;labelBackgroundColor=default;endArrow=classic;" edge="1" parent="1" source="Nfc84PNBoTLiPBviXg40-3" target="Nfc84PNBoTLiPBviXg40-7">
          <mxGeometry relative="1" as="geometry" />
        </mxCell>
        <mxCell id="Nfc84PNBoTLiPBviXg40-35" value="tensor([[ 0.0000e+00, -3.4028e+38, -3.4028e+38, -3.4028e+38, -3.4028e+38],&#xa;            [ 0.0000e+00,  0.0000e+00, -3.4028e+38, -3.4028e+38, -3.4028e+38],&#xa;            [ 0.0000e+00,  0.0000e+00,  0.0000e+00, -3.4028e+38, -3.4028e+38],&#xa;            [ 0.0000e+00,  0.0000e+00,  0.0000e+00,  0.0000e+00, -3.4028e+38],&#xa;            [ 0.0000e+00,  0.0000e+00,  0.0000e+00,  0.0000e+00,  0.0000e+00]],&#xa;       device=&#39;cuda:0&#39;)" style="text;whiteSpace=wrap;fontFamily=Helvetica;fontSize=11;fontColor=default;labelBackgroundColor=default;" vertex="1" parent="1">
          <mxGeometry x="640" y="390" width="410" height="100" as="geometry" />
        </mxCell>
        <mxCell id="Nfc84PNBoTLiPBviXg40-36" value="tensor([[ 0.0000e+00,  0.0000e+00, -3.4028e+38, -3.4028e+38, -3.4028e+38, -3.4028e+38],&#xa;            [ 0.0000e+00,  0.0000e+00,  0.0000e+00, -3.4028e+38, -3.4028e+38, -3.4028e+38],&#xa;            [ 0.0000e+00,  0.0000e+00,  0.0000e+00,  0.0000e+00, -3.4028e+38, -3.4028e+38],&#xa;            [ 0.0000e+00,  0.0000e+00,  0.0000e+00,  0.0000e+00,  0.0000e+00, -3.4028e+38],&#xa;            [ 0.0000e+00,  0.0000e+00,  0.0000e+00,  0.0000e+00,  0.0000e+00, 0.0000e+00]],         device=&#39;cuda:0&#39;)" style="text;whiteSpace=wrap;fontFamily=Helvetica;fontSize=11;fontColor=default;labelBackgroundColor=default;" vertex="1" parent="1">
          <mxGeometry x="640" y="540" width="460" height="90" as="geometry" />
        </mxCell>
        <mxCell id="Nfc84PNBoTLiPBviXg40-38" value="tensor([[ 0.0000e+00,  0.0000e+00, -3.4028e+38, -3.4028e+38, -3.4028e+38, -3.4028e+38],&#xa;            [ 0.0000e+00,  0.0000e+00,  0.0000e+00, -3.4028e+38, -3.4028e+38, -3.4028e+38],&#xa;            [ 0.0000e+00,  0.0000e+00,  0.0000e+00,  0.0000e+00, -3.4028e+38, -3.4028e+38],&#xa;            [-3.4028e+38,  0.0000e+00,  0.0000e+00,  0.0000e+00,  0.0000e+00, -3.4028e+38],&#xa;            [-3.4028e+38, -3.4028e+38,  0.0000e+00,  0.0000e+00,  0.0000e+00, 0.0000e+00]],             device=&#39;cuda:0&#39;)" style="text;whiteSpace=wrap;fontFamily=Helvetica;fontSize=11;fontColor=default;labelBackgroundColor=default;" vertex="1" parent="1">
          <mxGeometry x="640" y="670" width="460" height="90" as="geometry" />
        </mxCell>
        <mxCell id="Nfc84PNBoTLiPBviXg40-39" value="&lt;div style=&quot;color: #d4d4d4;background-color: #1e1e1e;font-family: Consolas, &#39;Courier New&#39;, monospace;font-weight: normal;font-size: 14px;line-height: 19px;white-space: pre;&quot;&gt;&lt;div&gt;&lt;span style=&quot;color: #d4d4d4;&quot;&gt;past_key_values_length = key_value_length - query_length&lt;/span&gt;&lt;/div&gt;&lt;/div&gt;" style="text;whiteSpace=wrap;html=1;fontFamily=Helvetica;fontSize=11;fontColor=default;labelBackgroundColor=default;" vertex="1" parent="1">
          <mxGeometry x="380" y="50" width="460" height="40" as="geometry" />
        </mxCell>
        <mxCell id="Nfc84PNBoTLiPBviXg40-40" value="&lt;div style=&quot;color: #d4d4d4;background-color: #1e1e1e;font-family: Consolas, &#39;Courier New&#39;, monospace;font-weight: normal;font-size: 14px;line-height: 19px;white-space: pre;&quot;&gt;&lt;br&gt;&lt;/div&gt;" style="text;whiteSpace=wrap;html=1;fontFamily=Helvetica;fontSize=11;fontColor=default;labelBackgroundColor=default;" vertex="1" parent="1">
          <mxGeometry x="800" y="20" width="200" height="40" as="geometry" />
        </mxCell>
        <mxCell id="Nfc84PNBoTLiPBviXg40-41" value="&lt;span style=&quot;font-family: Consolas, &amp;quot;Courier New&amp;quot;, monospace; font-size: 14px; font-style: normal; font-variant-ligatures: normal; font-variant-caps: normal; font-weight: 400; letter-spacing: normal; orphans: 2; text-align: left; text-indent: 0px; text-transform: none; widows: 2; word-spacing: 0px; -webkit-text-stroke-width: 0px; white-space: pre; text-decoration-thickness: initial; text-decoration-style: initial; text-decoration-color: initial; float: none; display: inline !important;&quot;&gt;AttentionMaskConverter&lt;/span&gt;" style="rounded=1;whiteSpace=wrap;html=1;fontFamily=Helvetica;fontSize=11;labelBackgroundColor=none;fillColor=#cce5ff;strokeColor=#36393d;" vertex="1" parent="1">
          <mxGeometry x="860" y="40" width="180" height="30" as="geometry" />
        </mxCell>
      </root>
    </mxGraphModel>
  </diagram>
</mxfile>
